<svg
            width="19"
            height="19"
            viewBox="0 0 19 19"
            fill="none"
            xmlns="http://www.w3.org/2000/svg"
          >
            <path
              d="M14.5 6.5C14.5 5.5 14.5 5.2 14.5 4C14.5 2.8 13.5 2.5 13 2.5H5C4 2.5 3.5 3 3.5 4C3.5 4.76185 3.5 11.0255 3.5 14.5M7.5 16.5C6.33333 16.5 5.8 16.5 5 16.5C4 16.5 3.5 16 3.5 15C3.5 14.841 3.5 14.674 3.5 14.5M6.5 14.5H3.5M5.5 5H12V6.5H5.5V5Z"
              stroke="#263238"
              stroke-linecap="round"
              stroke-linejoin="round"
            />
            <circle cx="12.5" cy="12.5" r="4.5" stroke="#263238" />
            <path
              d="M11 14C11 14.1801 11.0969 14.3463 11.2536 14.4351C11.4104 14.5238 11.6028 14.5214 11.7572 14.4288L14.2572 12.9289C14.4078 12.8386 14.5 12.6758 14.5 12.5002C14.5 12.3245 14.4079 12.1618 14.2573 12.0714L11.7573 10.5713C11.6028 10.4786 11.4104 10.4761 11.2537 10.5649C11.0969 10.6536 11 10.8199 11 11V14Z"
              stroke="#263238"
              stroke-linecap="round"
              stroke-linejoin="round"
            />
          </svg>